<?xml version="1.0" standalone="no"?>
<!DOCTYPE svg PUBLIC "-//W3C//DTD SVG 20010904//EN"
 "http://www.w3.org/TR/2001/REC-SVG-20010904/DTD/svg10.dtd">
<svg version="1.0" xmlns="http://www.w3.org/2000/svg"
 width="512.000000pt" height="512.000000pt" viewBox="0 0 512.000000 512.000000"
 preserveAspectRatio="xMidYMid meet">
<metadata>
Created by potrace 1.14, written by Peter Selinger 2001-2017
</metadata>
<g transform="translate(0.000000,512.000000) scale(0.100000,-0.100000)"
fill="#000000" stroke="none">
<path d="M1399 4408 c-23 -40 -49 -84 -58 -98 -8 -14 -21 -34 -27 -45 -38 -70
-321 -560 -351 -607 -12 -21 -23 -39 -23 -41 0 -2 -37 -67 -81 -143 -45 -76
-93 -159 -107 -184 -14 -25 -40 -72 -60 -105 -19 -33 -43 -74 -52 -91 -10 -16
-85 -148 -168 -291 -84 -146 -150 -270 -148 -280 2 -10 100 -187 218 -393 118
-206 226 -395 240 -420 14 -25 85 -148 158 -275 72 -126 146 -255 163 -285 17
-30 91 -161 165 -290 74 -129 143 -248 152 -265 l17 -30 1123 0 1122 0 129
225 c71 124 133 232 139 240 5 8 13 22 17 30 4 8 74 132 156 275 82 143 161
280 175 305 37 66 262 460 283 495 10 17 30 53 45 80 14 28 35 62 45 77 11 14
19 28 19 31 0 3 25 48 55 100 30 52 53 103 50 113 -3 17 -237 430 -341 602
-24 40 -44 75 -44 77 0 2 -25 45 -55 96 -30 50 -55 93 -55 95 0 1 -47 83 -104
181 -178 307 -288 496 -314 543 -32 57 -171 298 -189 328 l-13 22 -1120 0
-1119 0 -42 -72z m1959 -209 c-2 -3 -56 -91 -121 -195 -256 -409 -558 -890
-567 -904 -46 -69 -310 -495 -310 -501 0 -4 23 -47 51 -96 28 -48 61 -106 74
-128 12 -22 139 -245 282 -495 143 -250 269 -471 280 -490 11 -19 83 -146 161
-282 78 -136 143 -252 144 -259 2 -10 -190 -12 -875 -13 l-878 -1 -64 110
c-34 61 -72 127 -83 147 -11 20 -75 131 -142 248 -67 117 -131 229 -142 249
-11 20 -83 145 -160 279 -76 133 -151 264 -165 290 -14 26 -37 64 -50 84 -12
21 -23 39 -23 42 0 2 -29 54 -65 115 -36 62 -65 116 -65 120 0 5 86 159 191
342 211 369 195 341 321 564 50 88 99 172 109 187 11 15 19 29 19 31 0 13 292
517 311 537 l24 25 873 0 c479 0 871 -3 870 -6z m682 -901 c239 -418 436 -766
438 -773 2 -7 -20 -52 -49 -101 -28 -49 -63 -109 -77 -134 -14 -25 -158 -277
-320 -560 -284 -496 -315 -551 -392 -688 -31 -56 -50 -76 -50 -54 0 5 -48 91
-106 193 -58 101 -117 203 -130 226 -13 23 -86 152 -162 285 -77 134 -149 259
-159 278 -11 19 -90 158 -177 308 -86 151 -156 277 -156 282 0 4 -7 13 -15 20
-13 10 -11 16 9 44 13 17 63 96 112 176 49 80 92 150 97 155 12 15 392 621
429 685 18 30 36 60 41 65 10 12 132 207 183 293 21 34 40 62 43 62 3 0 202
-343 441 -762z m328 -383 c-3 -3 -9 2 -12 12 -6 14 -5 15 5 6 7 -7 10 -15 7
-18z m-3695 -150 c-3 -9 -8 -14 -10 -11 -3 3 -2 9 2 15 9 16 15 13 8 -4z"/>
</g>
</svg>
