<svg xmlns="http://www.w3.org/2000/svg" fill="none" viewBox="0 0 220 220"><path fill="#FCBF92" fill-rule="evenodd" d="M210 132.447l-100-13.23-100 13.23L110 216.5l100-84.053z" clip-rule="evenodd"/><path fill="#9D5025" fill-rule="evenodd" d="M10 132.447l100 32.112V216.5L10 162.664v-30.217z" clip-rule="evenodd"/><path fill="#F58534" fill-rule="evenodd" d="M210 132.447l-100 32.112V216.5l100-53.836v-30.217z" clip-rule="evenodd"/><path fill="#9D5025" fill-rule="evenodd" d="M22.912 86.79H10v30.532l12.912 2.526 14.353-16.355-14.353-16.704z" clip-rule="evenodd"/><path fill="#F58534" fill-rule="evenodd" d="M37.265 118.586l-14.353 1.262V86.789h14.353v31.797z" clip-rule="evenodd"/><path fill="#9D5025" fill-rule="evenodd" d="M46.941 48.71l-17 3.442v69.275l17 3.789L62.5 86.79 46.941 48.71z" clip-rule="evenodd"/><path fill="#F58534" fill-rule="evenodd" d="M62.5 123.322l-15.559 1.894V48.71L62.5 50.605v72.717z" clip-rule="evenodd"/><path fill="#9D5025" fill-rule="evenodd" d="M80.088 64.119l-23.47 2.526v60.75l23.47 5.052L105 98.125 80.088 64.12z" clip-rule="evenodd"/><path fill="#F58534" fill-rule="evenodd" d="M95.912 129.606l-15.824 2.841V64.119l15.824 1.263v64.224z" clip-rule="evenodd"/><path fill="#9D5025" fill-rule="evenodd" d="M110 9.02l-15.823 5.368V135.29L110 138.731l15.824-64.855L110 9.02z" clip-rule="evenodd"/><path fill="#9D5025" fill-rule="evenodd" d="M124.647 129.605l15.265 2.842 23.471-45.658-23.471-45.341-15.265 2.526v85.631z" clip-rule="evenodd"/><path fill="#9D5025" fill-rule="evenodd" d="M163.383 86.79l-23.471-45.342-15.265 2.526" clip-rule="evenodd"/><path fill="#9D5025" fill-rule="evenodd" d="M157.206 123.322l15.853 1.894 17-57.624-17-57.309-15.853 4.105v108.934z" clip-rule="evenodd"/><path fill="#9D5025" fill-rule="evenodd" d="M182.735 118.586l14.353 1.263L210 62.856 197.088 4l-14.353 3.789v110.797z" clip-rule="evenodd"/><path fill="#F58534" fill-rule="evenodd" d="M110 9.02l15.823 5.368V135.29L110 138.731V9.021zm53.383 37.48l-23.471-5.052v90.999l23.471-5.052V46.5zm26.676-28.954l-17-7.263v114.933l17-3.789V17.546zM210 10.915L197.088 4v115.849L210 117.323V10.915z" clip-rule="evenodd"/></svg>