<svg xmlns="http://www.w3.org/2000/svg" viewBox="0 0 64 64"><g fill="none"><path fill="#4386FA" d="M14.48 58.473L.558 34.359a4.163 4.163 0 010-4.164L14.48 6.082A4.163 4.163 0 0118.08 4h27.857c1.48.007 2.845.8 3.585 2.082l13.92 24.113a4.163 4.163 0 010 4.164L49.52 58.473a4.163 4.163 0 01-3.6 2.082H18.07a4.167 4.167 0 01-3.593-2.082h.003z"/><path fill="#000" d="M40.697 24.512s3.87 9.283-1.406 14.545c-5.276 5.262-14.883 1.894-14.883 1.894L43.95 60.547h1.984a4.163 4.163 0 003.6-2.082l9.216-15.958-18.053-17.995z" opacity=".1"/><path fill="#FFF" d="M45.267 43.507L41 39.23a.67.67 0 00-.158-.12 11.63 11.63 0 10-2.032 2.037.67.67 0 00.113.15l4.277 4.277a.67.67 0 00.947 0l1.12-1.12a.67.67 0 000-.947zM31.64 40.741a8.75 8.75 0 11-.002-17.5 8.75 8.75 0 01.002 17.5zm-5.593-9.216v3.616a6.426 6.426 0 002.338 2.375v-6.013l-2.338.022zm4.375-2.998v9.772a6.45 6.45 0 002.338 0v-9.772h-2.338zm6.764 6.606v-2.142H34.85v4.5a6.43 6.43 0 002.338-2.368l-.002.01z"/></g></svg>