<svg width="77" height="19" viewBox="0 0 77 19" fill="none" xmlns="http://www.w3.org/2000/svg">
<path d="M72.887 6.64801V14.4C72.887 15.04 73.023 15.496 73.295 15.768C73.567 16.024 74.039 16.152 74.711 16.152H76.319V18H74.351C73.135 18 72.223 17.72 71.615 17.16C71.007 16.6 70.703 15.68 70.703 14.4V6.64801H68.999V4.84801H70.703V1.53601H72.887V4.84801H76.319V6.64801H72.887Z" fill="#70B5D0"/>
<path d="M63.454 6.98397C63.838 6.23197 64.382 5.64797 65.086 5.23197C65.806 4.81597 66.678 4.60797 67.702 4.60797V6.86397H67.126C64.678 6.86397 63.454 8.19197 63.454 10.848V18H61.27V4.84797H63.454V6.98397Z" fill="#70B5D0"/>
<path d="M44.2354 11.376C44.2354 10.032 44.5073 8.85596 45.0513 7.84796C45.5953 6.82396 46.3394 6.03196 47.2834 5.47196C48.2434 4.91196 49.3073 4.63196 50.4753 4.63196C51.6273 4.63196 52.6273 4.87996 53.4753 5.37596C54.3233 5.87196 54.9553 6.49596 55.3713 7.24796V4.84796H57.5793V18H55.3713V15.552C54.9393 16.32 54.2913 16.96 53.4273 17.472C52.5793 17.968 51.5874 18.216 50.4514 18.216C49.2834 18.216 48.2274 17.928 47.2834 17.352C46.3394 16.776 45.5953 15.968 45.0513 14.928C44.5073 13.888 44.2354 12.704 44.2354 11.376ZM55.3713 11.4C55.3713 10.408 55.1714 9.54396 54.7714 8.80796C54.3714 8.07196 53.8274 7.51196 53.1394 7.12796C52.4674 6.72796 51.7233 6.52796 50.9073 6.52796C50.0913 6.52796 49.3474 6.71996 48.6754 7.10396C48.0034 7.48796 47.4673 8.04796 47.0673 8.78396C46.6673 9.51996 46.4674 10.384 46.4674 11.376C46.4674 12.384 46.6673 13.264 47.0673 14.016C47.4673 14.752 48.0034 15.32 48.6754 15.72C49.3474 16.104 50.0913 16.296 50.9073 16.296C51.7233 16.296 52.4674 16.104 53.1394 15.72C53.8274 15.32 54.3714 14.752 54.7714 14.016C55.1714 13.264 55.3713 12.392 55.3713 11.4Z" fill="#70B5D0"/>
<path d="M40.0437 18L34.8837 12.192V18H32.6997V0.23999H34.8837V10.68L39.9477 4.84799H42.9957L36.8037 11.4L43.0197 18H40.0437Z" fill="#70B5D0"/>
<path d="M29.817 10.92C29.817 11.336 29.793 11.776 29.745 12.24H19.233C19.313 13.536 19.753 14.552 20.553 15.288C21.369 16.008 22.353 16.368 23.505 16.368C24.449 16.368 25.233 16.152 25.857 15.72C26.497 15.272 26.945 14.68 27.201 13.944H29.553C29.201 15.208 28.497 16.24 27.441 17.04C26.385 17.824 25.073 18.216 23.505 18.216C22.257 18.216 21.137 17.936 20.145 17.376C19.169 16.816 18.401 16.024 17.841 15C17.281 13.96 17.001 12.76 17.001 11.4C17.001 10.04 17.273 8.84796 17.817 7.82396C18.361 6.79996 19.121 6.01596 20.097 5.47196C21.089 4.91196 22.225 4.63196 23.505 4.63196C24.753 4.63196 25.857 4.90396 26.817 5.44796C27.777 5.99196 28.513 6.74396 29.025 7.70396C29.553 8.64796 29.817 9.71996 29.817 10.92ZM27.561 10.464C27.561 9.63196 27.377 8.91996 27.009 8.32796C26.641 7.71996 26.137 7.26396 25.497 6.95996C24.873 6.63996 24.177 6.47996 23.409 6.47996C22.305 6.47996 21.361 6.83196 20.577 7.53596C19.809 8.23996 19.369 9.21596 19.257 10.464H27.561Z" fill="#70B5D0"/>
<path d="M6.05614 1.27197C7.88014 1.27197 9.45614 1.61597 10.7841 2.30397C12.1281 2.97597 13.1521 3.94397 13.8561 5.20797C14.5761 6.47197 14.9361 7.95997 14.9361 9.67197C14.9361 11.384 14.5761 12.872 13.8561 14.136C13.1521 15.384 12.1281 16.344 10.7841 17.016C9.45614 17.672 7.88014 18 6.05614 18H0.848145V1.27197H6.05614ZM6.05614 16.2C8.21614 16.2 9.86414 15.632 11.0001 14.496C12.1361 13.344 12.7041 11.736 12.7041 9.67197C12.7041 7.59197 12.1281 5.96797 10.9761 4.79997C9.84014 3.63197 8.20014 3.04797 6.05614 3.04797H3.03215V16.2H6.05614Z" fill="#70B5D0"/>
</svg>
