<svg xmlns="http://www.w3.org/2000/svg" viewBox="0 0 24 24" fill="#000"><path d="M20.288 9.463a4.86 4.86 0 0 0-4.336-2.3 4.59 4.59 0 0 0-3.343 1.767c.071.116.148.226.212.347l.879 1.652.134-.254a2.71 2.71 0 0 1 2.206-1.519 2.845 2.845 0 1 1 0 5.686 2.71 2.71 0 0 1-2.205-1.518L13.131 12l-1.193-2.26a4.71 4.71 0 0 0-3.89-2.581 4.845 4.845 0 1 0 0 9.682 4.59 4.59 0 0 0 3.343-1.767c-.071-.116-.148-.226-.212-.347l-.879-1.656-.134.254a2.71 2.71 0 0 1-2.206 1.519 2.86 2.86 0 0 1-2.559-1.369 2.83 2.83 0 0 1 0-2.946 2.86 2.86 0 0 1 2.442-1.374h.121a2.71 2.71 0 0 1 2.205 1.518l.7 1.327 1.193 2.26a4.71 4.71 0 0 0 3.89 2.581h.209a4.846 4.846 0 0 0 4.127-7.378z"/></svg>
