<svg xmlns="http://www.w3.org/2000/svg" viewBox="0 0 60 60"><path fill="#29B5E8" d="M52.146 45.783L39.55 38.495a3.703 3.703 0 00-5.533 3.572V56.31a3.69 3.69 0 003.69 3.69 3.69 3.69 0 003.683-3.69v-8.19l7.056 4.082a3.697 3.697 0 005.056-1.36 3.7 3.7 0 00-1.356-5.059M20 31.013a3.646 3.646 0 00-1.823-3.214L5.47 20.485a3.661 3.661 0 00-4.98 1.332 3.635 3.635 0 001.337 4.968l7.323 4.212-7.323 4.218a3.595 3.595 0 00-1.699 2.206 3.6 3.6 0 00.363 2.761 3.659 3.659 0 004.981 1.333L18.177 34.2A3.654 3.654 0 0020 31.013M7.846 14.242l12.546 7.26a3.68 3.68 0 004.422-.556A3.67 3.67 0 0026 18.236V3.685A3.678 3.678 0 0022.33 0a3.679 3.679 0 00-3.674 3.684v8.283l-7.125-4.123a3.68 3.68 0 00-5.036 1.35 3.702 3.702 0 001.351 5.048m29.152 16.409c0 .285-.164.679-.367.887l-5.095 5.095a1.445 1.445 0 01-.887.367h-1.297c-.284 0-.684-.164-.886-.367l-5.101-5.095c-.203-.208-.367-.602-.367-.887v-1.297c0-.29.164-.684.367-.886l5.1-5.101c.203-.203.603-.367.887-.367h1.297c.285 0 .684.164.887.367l5.095 5.1c.203.203.367.597.367.887v1.297zm-4.548-.624v-.054c0-.208-.12-.498-.268-.652l-1.505-1.5a1.03 1.03 0 00-.652-.273h-.054c-.208 0-.498.12-.652.274l-1.5 1.5a1.053 1.053 0 00-.267.65v.055c0 .214.12.504.268.652l1.5 1.505c.153.148.443.268.65.268h.055c.214 0 .504-.12.652-.268l1.505-1.505c.147-.148.268-.438.268-.652zm7.1-8.524l12.597-7.26a3.692 3.692 0 001.356-5.05 3.703 3.703 0 00-5.056-1.35l-7.057 4.07v-8.23a3.686 3.686 0 00-7.373 0v14.264c-.07.74.075 1.51.477 2.206a3.703 3.703 0 005.057 1.35M22.908 38.065a3.639 3.639 0 00-2.516.43L7.846 45.783a3.712 3.712 0 00-1.351 5.06 3.672 3.672 0 005.036 1.359l7.125-4.136v8.244A3.684 3.684 0 0022.331 60C24.355 60 26 58.346 26 56.31V41.712a3.687 3.687 0 00-3.092-3.647M59.502 21.85a3.7 3.7 0 00-5.056-1.353L41.85 27.752A3.695 3.695 0 0040 31.015a3.682 3.682 0 001.85 3.232l12.596 7.26a3.711 3.711 0 005.056-1.354 3.69 3.69 0 00-1.357-5.045l-7.131-4.109 7.131-4.109a3.677 3.677 0 001.357-5.04"/></svg>